<svg xmlns="http://www.w3.org/2000/svg" width="1300" height="1820" viewBox="0 0 1300 1820">
<defs>
  <marker id="arr" markerWidth="10" markerHeight="7" refX="9" refY="3.5" orient="auto">
    <polygon points="0 0, 10 3.5, 0 7" fill="#94a3b8"/>
  </marker>
  <marker id="arr_dashed" markerWidth="10" markerHeight="7" refX="9" refY="3.5" orient="auto">
    <polygon points="0 0, 10 3.5, 0 7" fill="#f59e0b"/>
  </marker>
  <filter id="shadow" x="-10%" y="-10%" width="120%" height="130%">
    <feDropShadow dx="0" dy="2" stdDeviation="3" flood-opacity="0.15"/>
  </filter>
</defs>
<rect width="1300" height="1820" fill="#0f172a"/>
<text x="650" y="32" text-anchor="middle" font-family="Arial,sans-serif" font-size="22" font-weight="bold" fill="#f8fafc">GuestFlow — Application Architecture</text>
<rect x="980" y="265" width="260" height="610" rx="12" fill="#1e293b" stroke="#334155" stroke-width="1"/>
<text x="1110" y="285" text-anchor="middle" font-family="Arial,sans-serif" font-size="13" font-weight="bold" fill="#94a3b8">ADMIN PORTAL</text>
<rect x="160" y="140" width="740" height="1120" rx="12" fill="#1e293b" stroke="#1e40af" stroke-width="1" stroke-dasharray="4,3"/>
<text x="530" y="160" text-anchor="middle" font-family="Arial,sans-serif" font-size="13" font-weight="bold" fill="#60a5fa">GUEST CHECK-IN FLOW</text>
<rect x="165" y="930" width="915" height="130" rx="8" fill="#1e0a2e" stroke="#7e22ce" stroke-width="1"/>
<text x="622" y="948" text-anchor="middle" font-family="Arial,sans-serif" font-size="12" font-weight="bold" fill="#c084fc">EMAIL NOTIFICATIONS (Microsoft Graph API)</text>
<path d="M670,88 C670,143 370,143 370,198" fill="none" stroke="#94a3b8" stroke-width="2"  marker-end="url(#arr)"/>
<path d="M670,88 C670,143 840,143 840,198" fill="none" stroke="#94a3b8" stroke-width="2"  marker-end="url(#arr)"/>
<path d="M370,198 C370,258 580,258 580,318" fill="none" stroke="#94a3b8" stroke-width="2"  marker-end="url(#arr)"/>
<path d="M840,198 C840,258 580,258 580,318" fill="none" stroke="#94a3b8" stroke-width="2"  marker-end="url(#arr)"/>
<path d="M580,318 C580,368 580,368 580,418" fill="none" stroke="#94a3b8" stroke-width="2"  marker-end="url(#arr)"/>
<path d="M580,418 C580,468 580,468 580,518" fill="none" stroke="#94a3b8" stroke-width="2"  marker-end="url(#arr)"/>
<path d="M580,518 C580,568 580,568 580,618" fill="none" stroke="#94a3b8" stroke-width="2"  marker-end="url(#arr)"/>
<text x="584" y="568" font-family="Arial,sans-serif" font-size="11" fill="#fbbf24">Submit</text>
<path d="M580,618 C580,668 580,668 580,718" fill="none" stroke="#94a3b8" stroke-width="2"  marker-end="url(#arr)"/>
<path d="M580,718 C580,784 640,784 640,850" fill="none" stroke="#94a3b8" stroke-width="2"  marker-end="url(#arr)"/>
<path d="M640,850 C640,923 300,923 300,996" fill="none" stroke="#94a3b8" stroke-width="2"  marker-end="url(#arr)"/>
<text x="474" y="923" font-family="Arial,sans-serif" font-size="11" fill="#fbbf24">YES</text>
<path d="M640,850 C640,923 630,923 630,996" fill="none" stroke="#94a3b8" stroke-width="2"  marker-end="url(#arr)"/>
<text x="639" y="923" font-family="Arial,sans-serif" font-size="11" fill="#fbbf24">YES</text>
<path d="M640,850 C640,923 940,923 940,996" fill="none" stroke="#94a3b8" stroke-width="2"  marker-end="url(#arr)"/>
<text x="794" y="923" font-family="Arial,sans-serif" font-size="11" fill="#fbbf24">NO</text>
<path d="M300,996 C300,1067 580,1067 580,1138" fill="none" stroke="#94a3b8" stroke-width="2"  marker-end="url(#arr)"/>
<path d="M630,996 C630,1067 580,1067 580,1138" fill="none" stroke="#94a3b8" stroke-width="2"  marker-end="url(#arr)"/>
<path d="M940,996 C940,1067 580,1067 580,1138" fill="none" stroke="#94a3b8" stroke-width="2"  marker-end="url(#arr)"/>
<path d="M580,1138 C580,1188 590,1188 590,1238" fill="none" stroke="#94a3b8" stroke-width="2"  marker-end="url(#arr)"/>
<path d="M1110,318 C1110,368 1110,368 1110,418" fill="none" stroke="#94a3b8" stroke-width="2"  marker-end="url(#arr)"/>
<path d="M1110,418 C1110,468 1110,468 1110,518" fill="none" stroke="#94a3b8" stroke-width="2"  marker-end="url(#arr)"/>
<path d="M1110,518 C1110,568 1110,568 1110,618" fill="none" stroke="#94a3b8" stroke-width="2"  marker-end="url(#arr)"/>
<path d="M1110,618 C1110,718 1110,718 1110,818" fill="none" stroke="#94a3b8" stroke-width="2"  marker-end="url(#arr)"/>
<text x="1114" y="718" font-family="Arial,sans-serif" font-size="11" fill="#fbbf24">Guest</text>
<text x="1114" y="732" font-family="Arial,sans-serif" font-size="11" fill="#fbbf24">arrives</text>
<path d="M1110,418 C1110,568 1110,568 1110,718" fill="none" stroke="#94a3b8" stroke-width="2"  marker-end="url(#arr)"/>
<path d="M1110,818 C1110,718 580,718 580,618" fill="none" stroke="#f59e0b" stroke-width="2" stroke-dasharray="6,4" marker-end="url(#arr_dashed)"/>
<text x="849" y="718" font-family="Arial,sans-serif" font-size="11" fill="#fbbf24">QR</text>
<text x="849" y="732" font-family="Arial,sans-serif" font-size="11" fill="#fbbf24">checkin</text>
<rect x="560" y="60" width="220" height="56" rx="28" fill="#16a34a" stroke="#15803d" stroke-width="2" filter="url(#shadow)"/>
<text x="670" y="82" text-anchor="middle" font-family="Arial,sans-serif" font-size="13" font-weight="bold" fill="#ffffff">Visitor Arrives</text>
<text x="670" y="98" text-anchor="middle" font-family="Arial,sans-serif" font-size="13" font-weight="normal" fill="#ffffff">at ACE HQ</text>
<rect x="280" y="170" width="180" height="56" rx="8" fill="#2563eb" stroke="#1d4ed8" stroke-width="2" filter="url(#shadow)"/>
<text x="370" y="192" text-anchor="middle" font-family="Arial,sans-serif" font-size="13" font-weight="bold" fill="#ffffff">Kiosk iPad</text>
<text x="370" y="208" text-anchor="middle" font-family="Arial,sans-serif" font-size="13" font-weight="normal" fill="#ffffff">(/kiosk)</text>
<rect x="740" y="170" width="200" height="56" rx="8" fill="#2563eb" stroke="#1d4ed8" stroke-width="2" filter="url(#shadow)"/>
<text x="840" y="192" text-anchor="middle" font-family="Arial,sans-serif" font-size="13" font-weight="bold" fill="#ffffff">Mobile / QR Code</text>
<text x="840" y="208" text-anchor="middle" font-family="Arial,sans-serif" font-size="13" font-weight="normal" fill="#ffffff">(/guest-check-in)</text>
<rect x="460" y="290" width="240" height="56" rx="8" fill="#2563eb" stroke="#1d4ed8" stroke-width="2" filter="url(#shadow)"/>
<text x="580" y="312" text-anchor="middle" font-family="Arial,sans-serif" font-size="13" font-weight="bold" fill="#ffffff">Bot Protection</text>
<text x="580" y="328" text-anchor="middle" font-family="Arial,sans-serif" font-size="13" font-weight="normal" fill="#ffffff">(Turnstile CAPTCHA)</text>
<rect x="460" y="390" width="240" height="56" rx="8" fill="#2563eb" stroke="#1d4ed8" stroke-width="2" filter="url(#shadow)"/>
<text x="580" y="412" text-anchor="middle" font-family="Arial,sans-serif" font-size="13" font-weight="bold" fill="#ffffff">Returning Visitor Lookup</text>
<text x="580" y="428" text-anchor="middle" font-family="Arial,sans-serif" font-size="13" font-weight="normal" fill="#ffffff">(Email Auto-fill)</text>
<rect x="380" y="490" width="400" height="56" rx="8" fill="#2563eb" stroke="#1d4ed8" stroke-width="2" filter="url(#shadow)"/>
<text x="580" y="512" text-anchor="middle" font-family="Arial,sans-serif" font-size="13" font-weight="bold" fill="#ffffff">Check-in Form</text>
<text x="580" y="528" text-anchor="middle" font-family="Arial,sans-serif" font-size="13" font-weight="normal" fill="#ffffff">(Name · Company · POC · Documents · Photo)</text>
<rect x="420" y="590" width="320" height="56" rx="8" fill="#2563eb" stroke="#1d4ed8" stroke-width="2" filter="url(#shadow)"/>
<text x="580" y="612" text-anchor="middle" font-family="Arial,sans-serif" font-size="13" font-weight="bold" fill="#ffffff">Express.js API</text>
<text x="580" y="628" text-anchor="middle" font-family="Arial,sans-serif" font-size="13" font-weight="normal" fill="#ffffff">POST /api/kiosk/checkin</text>
<rect x="420" y="690" width="320" height="56" rx="8" fill="#7c3aed" stroke="#6d28d9" stroke-width="2" filter="url(#shadow)"/>
<text x="580" y="712" text-anchor="middle" font-family="Arial,sans-serif" font-size="13" font-weight="bold" fill="#ffffff">Supabase PostgreSQL</text>
<text x="580" y="728" text-anchor="middle" font-family="Arial,sans-serif" font-size="13" font-weight="normal" fill="#ffffff">Save visitor record</text>
<polygon points="640,810 720,850 640,890 560,850" fill="#d97706" stroke="#b45309" stroke-width="2" filter="url(#shadow)"/>
<text x="640" y="844" text-anchor="middle" font-family="Arial,sans-serif" font-size="13" font-weight="bold" fill="#ffffff">POC</text>
<text x="640" y="860" text-anchor="middle" font-family="Arial,sans-serif" font-size="13" font-weight="normal" fill="#ffffff">Selected?</text>
<rect x="200" y="960" width="200" height="72" rx="8" fill="#db2777" stroke="#be185d" stroke-width="2" filter="url(#shadow)"/>
<text x="300" y="982" text-anchor="middle" font-family="Arial,sans-serif" font-size="11" font-weight="bold" fill="#ffffff">POC Email</text>
<text x="300" y="998" text-anchor="middle" font-family="Arial,sans-serif" font-size="11" font-weight="normal" fill="#ffffff">"{Name} is here</text>
<text x="300" y="1014" text-anchor="middle" font-family="Arial,sans-serif" font-size="11" font-weight="normal" fill="#ffffff">to see you"</text>
<rect x="520" y="960" width="220" height="72" rx="8" fill="#db2777" stroke="#be185d" stroke-width="2" filter="url(#shadow)"/>
<text x="630" y="982" text-anchor="middle" font-family="Arial,sans-serif" font-size="11" font-weight="bold" fill="#ffffff">Global List Email</text>
<text x="630" y="998" text-anchor="middle" font-family="Arial,sans-serif" font-size="11" font-weight="normal" fill="#ffffff">"{Name} is here</text>
<text x="630" y="1014" text-anchor="middle" font-family="Arial,sans-serif" font-size="11" font-weight="normal" fill="#ffffff">— visiting {POC}"</text>
<rect x="840" y="960" width="200" height="72" rx="8" fill="#db2777" stroke="#be185d" stroke-width="2" filter="url(#shadow)"/>
<text x="940" y="982" text-anchor="middle" font-family="Arial,sans-serif" font-size="11" font-weight="bold" fill="#ffffff">Global List Email</text>
<text x="940" y="998" text-anchor="middle" font-family="Arial,sans-serif" font-size="11" font-weight="normal" fill="#ffffff">"{Name} has</text>
<text x="940" y="1014" text-anchor="middle" font-family="Arial,sans-serif" font-size="11" font-weight="normal" fill="#ffffff">checked in"</text>
<rect x="390" y="1110" width="380" height="56" rx="8" fill="#2563eb" stroke="#1d4ed8" stroke-width="2" filter="url(#shadow)"/>
<text x="580" y="1132" text-anchor="middle" font-family="Arial,sans-serif" font-size="13" font-weight="bold" fill="#ffffff">Admin Dashboard Updated</text>
<text x="580" y="1148" text-anchor="middle" font-family="Arial,sans-serif" font-size="13" font-weight="normal" fill="#ffffff">(Real-time status change)</text>
<rect x="480" y="1210" width="220" height="56" rx="28" fill="#16a34a" stroke="#15803d" stroke-width="2" filter="url(#shadow)"/>
<text x="590" y="1240" text-anchor="middle" font-family="Arial,sans-serif" font-size="13" font-weight="bold" fill="#ffffff">Check-in Complete ✓</text>
<rect x="1010" y="290" width="200" height="56" rx="8" fill="#475569" stroke="#334155" stroke-width="2" filter="url(#shadow)"/>
<text x="1110" y="312" text-anchor="middle" font-family="Arial,sans-serif" font-size="13" font-weight="bold" fill="#ffffff">Admin Login</text>
<text x="1110" y="328" text-anchor="middle" font-family="Arial,sans-serif" font-size="13" font-weight="normal" fill="#ffffff">(/ace-admin)</text>
<rect x="1010" y="390" width="200" height="56" rx="8" fill="#475569" stroke="#334155" stroke-width="2" filter="url(#shadow)"/>
<text x="1110" y="412" text-anchor="middle" font-family="Arial,sans-serif" font-size="13" font-weight="bold" fill="#ffffff">View Dashboard</text>
<text x="1110" y="428" text-anchor="middle" font-family="Arial,sans-serif" font-size="13" font-weight="normal" fill="#ffffff">(All visitors)</text>
<rect x="1010" y="490" width="200" height="56" rx="8" fill="#475569" stroke="#334155" stroke-width="2" filter="url(#shadow)"/>
<text x="1110" y="512" text-anchor="middle" font-family="Arial,sans-serif" font-size="13" font-weight="bold" fill="#ffffff">Manage Customers</text>
<text x="1110" y="528" text-anchor="middle" font-family="Arial,sans-serif" font-size="13" font-weight="normal" fill="#ffffff">(Add · Import CSV)</text>
<rect x="1010" y="590" width="200" height="56" rx="8" fill="#475569" stroke="#334155" stroke-width="2" filter="url(#shadow)"/>
<text x="1110" y="612" text-anchor="middle" font-family="Arial,sans-serif" font-size="13" font-weight="bold" fill="#ffffff">Send Invitation</text>
<text x="1110" y="628" text-anchor="middle" font-family="Arial,sans-serif" font-size="13" font-weight="normal" fill="#ffffff">(QR Code Email)</text>
<rect x="1010" y="690" width="200" height="56" rx="8" fill="#475569" stroke="#334155" stroke-width="2" filter="url(#shadow)"/>
<text x="1110" y="712" text-anchor="middle" font-family="Arial,sans-serif" font-size="13" font-weight="bold" fill="#ffffff">Analytics &</text>
<text x="1110" y="728" text-anchor="middle" font-family="Arial,sans-serif" font-size="13" font-weight="normal" fill="#ffffff">Bot Stats</text>
<rect x="1010" y="790" width="200" height="56" rx="8" fill="#475569" stroke="#334155" stroke-width="2" filter="url(#shadow)"/>
<text x="1110" y="812" text-anchor="middle" font-family="Arial,sans-serif" font-size="13" font-weight="bold" fill="#ffffff">Staff Scans QR</text>
<text x="1110" y="828" text-anchor="middle" font-family="Arial,sans-serif" font-size="13" font-weight="normal" fill="#ffffff">(/scan)</text>
<text x="40" y="1690" font-family="Arial,sans-serif" font-size="13" font-weight="bold" fill="#94a3b8">Legend</text>
<rect x="40" y="1700" width="18" height="18" rx="4" fill="#16a34a"/>
<text x="66" y="1713" font-family="Arial,sans-serif" font-size="12" fill="#cbd5e1">Start / End</text>
<rect x="220" y="1700" width="18" height="18" rx="4" fill="#2563eb"/>
<text x="246" y="1713" font-family="Arial,sans-serif" font-size="12" fill="#cbd5e1">Process / API</text>
<rect x="400" y="1700" width="18" height="18" rx="4" fill="#d97706"/>
<text x="426" y="1713" font-family="Arial,sans-serif" font-size="12" fill="#cbd5e1">Decision</text>
<rect x="40" y="1736" width="18" height="18" rx="4" fill="#7c3aed"/>
<text x="66" y="1749" font-family="Arial,sans-serif" font-size="12" fill="#cbd5e1">Database</text>
<rect x="220" y="1736" width="18" height="18" rx="4" fill="#db2777"/>
<text x="246" y="1749" font-family="Arial,sans-serif" font-size="12" fill="#cbd5e1">Email Notification</text>
<rect x="400" y="1736" width="18" height="18" rx="4" fill="#475569"/>
<text x="426" y="1749" font-family="Arial,sans-serif" font-size="12" fill="#cbd5e1">Admin Action</text>
</svg>